#!OML:ASF F:\VICON\USERDATA\INSTALL\rory3\rory3.ASF
:FULLY-SPECIFIED
:DEGREES
19
root 0.8463983135630433 17.913098119919916 -4.401009766309832 -4.044090031567595 -1.0021741203736052 2.357318996344132
lfemur 0.11127606957177782 -4.089152866720173 -28.401487640619223
ltibia 25.65890334562419
lfoot -17.179987704429497 1.2625043803086822
ltoes 6.1891666197253965
rfemur -30.56248691329056 -1.720793284382871 19.07720988108628
rtibia 56.2653904849823
rfoot -10.777097560272493 -9.778443521444736
rtoes -2.3390620251818435
lowerback 11.680485583265211 -0.26079503071746085 -2.241361629309691
upperback 0.5452592841641428 -0.5976916035513415 0.7494558716179343
thorax -5.953631516958904 -0.22203808448335238 2.1521833454165398
lowerneck -16.137002274321123 -2.751196281560171 -1.5095569324211462
upperneck 22.34738790421037 -3.2158094702273026 -0.9678538820883673
head 9.759249732280038 -1.7350148290059295 -0.5050680950355777
lclavicle -4.533851499001852e-16 -7.764982017229946e-16
lhumerus -26.301807215149424 0.3061733657426844 81.03909279264242
lradius 26.75899578341994
lwrist 5.634778940063083
lhand -28.147300922211436 16.846307014174158
lfingers 7.12502
lthumb -1.528130922091886 46.820606984923955
rclavicle -4.533851499001852e-16 -7.764982017229946e-16
rhumerus -30.73549603642521 -23.162293260644716 -77.13480317437659
rradius 24.423504587847717
rwrist 5.420807118858352
rhand -17.705101455418557 24.62129061304165
rfingers 7.12502
rthumb 8.554898543470431 -5.1853894779807606
20
root 0.7923675867048103 17.92259743577433 -3.6966301258268626 -3.416144038572494 -0.49240182997486226 2.785497909949383
lfemur 3.9972516144839076 -3.3273351707690977 -28.620987321306117
ltibia 21.374805825115036
lfoot -17.550987272861505 -0.1304076520692221
ltoes 2.483972021041183
rfemur -31.212586467110487 -0.5718359255463183 18.460610808375506
rtibia 44.20809693885325
rfoot -8.286160029451555 -10.984991329618328
rtoes -5.409107704182468
lowerback 11.269589194920819 -0.5300272533687365 -3.0926396306385415
upperback 0.5493901604076293 -1.0473827305750079 0.88369716539067
thorax -5.677745515610269 -0.4234642423620891 2.840170436570678
lowerneck -16.998687005535924 -2.692578069386384 -1.7603530606621747
upperneck 22.40208727055096 -3.1416107779121853 -0.586464527072948
head 9.952333067361554 -1.6755975358833413 -0.33511801884556375
lclavicle -4.533851309123046e-16 -7.764981973281279e-16
lhumerus -24.087210553331026 -0.5319992161594165 80.85319377315913
lradius 28.69309180902867
lwrist 7.747152939179402
lhand -21.590230476958432 46.07185033016165
lfingers 7.12502
lthumb 4.804479522895649 75.99735043887824
rclavicle -4.533851309123046e-16 -7.764981973281279e-16
rhumerus -31.684894550123147 -23.1002933413897 -76.59420436593784
rradius 24.566404285760502
rwrist 5.0882878027029825
rhand -17.490403070757598 24.143092499608844
rfingers 7.12502
rthumb 8.762096928023622 -5.654997610058737
21
root 0.7663838506486107 17.90862099560695 -2.5163957294497177 -2.3101657678341936 0.45795232325185253 3.415987325717815
lfemur 8.111145377817818 -0.9444126676432076 -29.196902493080163
ltibia 15.95313363446395
lfoot -17.79381779577015 0.3558092561512467
ltoes -0.6303961669658324
rfemur -25.566093190750216 2.781596836818954 17.58136925235533
rtibia 29.140312633967064
rfoot -8.489276207034667 -15.078918662815648
rtoes -2.9328022879091957
lowerback 9.668410404257427 -1.082426365277132 -4.759196198456554
upperback 0.7804759484345489 -1.7050740994639717 0.5329254421303832
thorax -4.601776717906829 -0.7130064154080432 2.9624047440065455
lowerneck -16.067015873648007 -2.7480985575431482 -1.8581884439210925
upperneck 21.6517234557359 -3.2533071765153623 -0.3360241586576632
head 9.529422933018244 -1.730500847985066 -0.2208726625452122
lclavicle -4.533851670713269e-16 -7.764982111233197e-16
lhumerus -23.737257834110903 -2.239149504297397 80.42540682387065
lradius 29.337119179880112
lwrist 8.32647110693338
lhand -28.152198537555634 23.538582452496893
lfingers 7.12502
lthumb -1.617224235948364 53.60039056975658
rclavicle -4.533851669504409e-16 -7.764982110295178e-16
rhumerus -31.87999673782063 -24.74666658894589 -75.62187918686277
rradius 23.62013651529569
rwrist 5.28988177292204
rhand -17.58709995699277 23.238178944879515
rfingers 7.12502
rthumb 8.737899025336661 -6.397540875445538
22
root 0.7123250145883576 17.892477407274463 -1.6614518796396158 -1.3959088604323362 1.438511345407071 3.859487607995459
lfemur 10.902097745312949 0.004745524044816651 -29.02072404565638
ltibia 12.82027459304133
lfoot -18.049030496951392 0.5420136279469498
ltoes -4.007264369723339
rfemur -25.023699045564992 7.663624774054835 14.234109162758793
rtibia 17.315775765475262
rfoot -11.362866227772138 -19.328219964041715
rtoes -4.475047205114209
lowerback 9.285005458576059 -1.296576577255944 -5.199490740537789
upperback 0.6003284284997168 -2.074498287140881 0.6252344181055579
thorax -4.524411580526755 -0.8879019128160032 3.399248141288709
lowerneck -16.116094799426595 -2.8157100921064133 -1.882579543024802
upperneck 21.42179673930959 -3.377852176638317 -0.1058829940929863
head 9.466890014245577 -1.7496702834698852 -0.17569221587443384
lclavicle -4.533851670855711e-16 -7.764982111351389e-16
lhumerus -23.11352726801775 -2.8631332072262 80.27401939042177
lradius 30.681597352299594
lwrist 9.006823489437124
lhand -26.778201654534588 26.98969451084643
lfingers 7.12502
lthumb -0.31828321497956913 56.65748835318388
rclavicle -4.533851669482924e-16 -7.76498211028711e-16
rhumerus -32.8836619403793 -26.650580591805426 -74.32578007794012
rradius 22.64519235293554
rwrist 7.065621247046233
rhand -17.68817698455461 23.15867569476579
rfingers 7.12502
rthumb 8.585430798133181 -6.498112406879831
